<svg width="150" height="23" viewBox="0 0 150 23" fill="none" xmlns="http://www.w3.org/2000/svg">
<path d="M8.73 22.3C12.99 22.3 16.26 19.99 16.26 16.12C16.26 9.04 5.94 10.51 5.94 6.22C5.94 4.9 7.02 4.09 8.49 4.09C10.14 4.09 11.25 5.23 11.34 7.27L15.72 7.15C15.63 3.13 12.78 0.399999 8.43 0.399999C4.29 0.399999 1.47 2.86 1.47 6.4C1.47 13.36 11.67 12.58 11.67 16.39C11.67 17.68 10.59 18.61 8.76 18.61C6.78 18.61 5.25 17.41 5.19 15.19H0.72C0.78 18.82 3.51 22.3 8.73 22.3ZM25.8394 22.3C30.0994 22.3 33.3694 19.99 33.3694 16.12C33.3694 9.04 23.0494 10.51 23.0494 6.22C23.0494 4.9 24.1294 4.09 25.5994 4.09C27.2494 4.09 28.3594 5.23 28.4494 7.27L32.8294 7.15C32.7394 3.13 29.8894 0.399999 25.5394 0.399999C21.3994 0.399999 18.5794 2.86 18.5794 6.4C18.5794 13.36 28.7794 12.58 28.7794 16.39C28.7794 17.68 27.6994 18.61 25.8694 18.61C23.8894 18.61 22.3594 17.41 22.2994 15.19H17.8294C17.8894 18.82 20.6194 22.3 25.8394 22.3ZM49.4888 22V18.07H40.5788V0.699999H36.2288V22H49.4888ZM51.7177 15.91H64.4677V12.07H51.7177V15.91ZM75.483 22C82.293 22 86.313 17.32 86.313 11.35C86.313 5.38 82.293 0.699999 75.483 0.699999H68.133V22H75.483ZM72.483 4.63H75.483C79.293 4.63 81.963 6.85 81.963 11.35C81.963 15.85 79.293 18.07 75.483 18.07H72.483V4.63ZM106.111 22C102.121 17.32 100.261 15.1 99.1212 13.9C101.941 13.81 105.721 12.01 105.721 7.27C105.721 3.1 102.841 0.699999 98.1912 0.699999H89.4612V22H93.8112C93.8112 17.02 93.8112 14.26 93.5712 12.94L100.801 22H106.111ZM101.371 7.66C101.371 9.55 100.141 10.78 97.8912 10.78H93.8112V4.63H97.8912C100.141 4.63 101.371 5.83 101.371 7.66ZM118.553 22.3C124.853 22.3 129.443 17.68 129.443 11.35C129.443 5.02 124.853 0.399999 118.553 0.399999C112.253 0.399999 107.663 5.02 107.663 11.35C107.663 17.68 112.253 22.3 118.553 22.3ZM118.553 18.22C114.713 18.22 112.013 15.13 112.013 11.35C112.013 7.57 114.713 4.48 118.553 4.48C122.423 4.48 125.093 7.57 125.093 11.35C125.093 15.13 122.423 18.22 118.553 18.22ZM132.557 0.699999V22H136.907V15.28H140.927C145.697 15.28 149.057 12.4 149.057 7.87C149.057 3.25 145.697 0.699999 141.167 0.699999H132.557ZM136.907 11.29V4.66H141.167C143.207 4.66 144.707 5.86 144.707 7.99C144.707 10.12 143.207 11.29 141.167 11.29H136.907Z" fill="#202020"/>
</svg>
